<?xml version="1.0" encoding="utf-8"?>
<!-- Generator: Adobe Illustrator 19.0.0, SVG Export Plug-In . SVG Version: 6.00 Build 0)  -->
<svg version="1.1" id="Layer_1" xmlns="http://www.w3.org/2000/svg" xmlns:xlink="http://www.w3.org/1999/xlink" x="0px" y="0px"
	 viewBox="0 0 190.4 69.9" style="enable-background:new 0 0 190.4 69.9;" xml:space="preserve">
<g id="XMLID_4_">
	<g id="XMLID_1_">
		<g id="XMLID_60_">
			<path id="XMLID_2_" d="M95.8,67c-27.3-19.5-54.7-39-82-58.5C9.9,5.8,6,3,2.2,0.3C0.6-0.8-0.9,1.8,0.7,2.9
				c27.3,19.5,54.7,39,82,58.5c3.9,2.7,7.7,5.5,11.6,8.2C95.8,70.7,97.3,68.1,95.8,67L95.8,67z"/>
		</g>
	</g>
	<g id="XMLID_3_">
		<g id="XMLID_5_">
			<g id="XMLID_57_">
				<path d="M96.2,69.6c27.3-19.5,54.7-39,82-58.5c3.9-2.7,7.7-5.5,11.6-8.2c1.6-1.1,0.1-3.7-1.5-2.6c-27.3,19.5-54.7,39-82,58.5
					c-3.9,2.7-7.7,5.5-11.6,8.2C93.1,68.1,94.6,70.8,96.2,69.6L96.2,69.6z"/>
			</g>
		</g>
	</g>
</g>
</svg>
