<svg version="1" xmlns="http://www.w3.org/2000/svg" width="682.667" height="682.667" viewBox="0 0 512.000000 512.000000"><path d="M40.5 1.2c-16 3-31.4 16.6-37.7 33.4L.5 40.5v431l2.3 5.9c6.4 16.9 21.3 30 38 33.5 7.5 1.6 422.9 1.6 430.4 0 18.9-3.9 35.8-20.8 39.7-39.7 1.6-7.5 1.6-422.9 0-430.4-3.5-16.7-16.6-31.6-33.5-38L471.5.5l-213-.1C126.2.3 43.6.6 40.5 1.2zM163.2 120c18.5 32.4 46.4 90 77.5 160 7.9 17.9 14.7 32.8 15.2 33.3.4.4 7.9-15.3 16.6-35 30-67.6 58.1-125.6 77.1-159.1l8.7-15.2h37.5l.6 3.7c1 6.2 8.4 89.5 11.1 124.3C412 290.8 418 387.9 418 402.2v5.8h-40.8l-.6-8.7c-.3-4.9-.8-16-1.1-24.8-2.2-60.8-6.1-131.4-9.5-173.1-1.1-13.2-2-24.7-2-25.5 0-2.8-2.9 1.8-11.3 18.1-15.8 30.5-78.7 167.2-78.7 171 0 .6-7 1-17.5 1-15.8 0-17.6-.2-18.2-1.8-2.6-7-39.5-88.9-54.3-120.2-22.6-48.1-34.1-70-35.1-67.4-2.4 5.8-9.6 128.8-12.5 212.1l-.7 19.3h-20.9c-16 0-20.8-.3-20.8-1.3 0-4.8 4.4-87.2 6-113.2 3.6-57.3 9.4-127.1 14-168.6 1.1-10 2-18.8 2-19.6 0-1.1 3.5-1.3 19.2-1.1l19.2.3 8.8 15.5z"/></svg>